<mxfile host="app.diagrams.net" modified="2022-06-03T09:45:46.282Z" agent="5.0 (X11)" etag="vd47WNPx2QeItwdtTSOS" version="19.0.0" type="github">
  <diagram id="8moAS61EBwtthzhN6-V3" name="Page-1">
    <mxGraphModel dx="1662" dy="793" grid="1" gridSize="10" guides="1" tooltips="1" connect="1" arrows="1" fold="1" page="1" pageScale="1" pageWidth="827" pageHeight="1169" math="0" shadow="0">
      <root>
        <mxCell id="0" />
        <mxCell id="1" parent="0" />
        <mxCell id="kx3Ie3QOy20wnRRrD1VL-1" value="Docker Compose" style="swimlane;" vertex="1" parent="1">
          <mxGeometry x="30" y="30" width="340" height="160" as="geometry" />
        </mxCell>
        <mxCell id="kx3Ie3QOy20wnRRrD1VL-2" value="Container&#xa;Registry" style="sketch=0;html=1;verticalAlign=top;labelPosition=center;verticalLabelPosition=bottom;align=center;spacingTop=-6;fontSize=11;fontStyle=1;fontColor=#999999;shape=image;aspect=fixed;imageAspect=0;image=data:image/svg+xml,PHN2ZyB4bWxucz0iaHR0cDovL3d3dy53My5vcmcvMjAwMC9zdmciIHhtbG5zOnY9Imh0dHBzOi8vdmVjdGEuaW8vbmFubyIgd2lkdGg9IjM3Ny4xNTkzMDIxNjAyNjMwNSIgaGVpZ2h0PSIzMzYuMTYyNDk5MDAzMzEwOCIgdmlld0JveD0iLTAuMDU4MDAwMDA1NzgxNjUwNTQgMC4xMTI5OTk5OTgwMzMwNDY3MiA5OS43OTAwMDA5MTU1MjczNCA4OC45NDMwMDA3OTM0NTcwMyI+JiN4YTs8c3R5bGUgdHlwZT0idGV4dC9jc3MiPiYjeGE7CS5zdDB7ZmlsbDojNjY5ZGY2O30mI3hhOwkuc3Qxe2ZpbGw6I2FlY2JmYTt9JiN4YTsJLnN0MntmaWxsOiM0Mjg1ZjQ7fSYjeGE7PC9zdHlsZT4mI3hhOwk8cGF0aCBjbGFzcz0ic3QwIiBkPSJNNTMuMjQzIDYyLjA5VjQ3LjA5NGwxMy4yMDEgOC40MTZ2MTUuMDM4em0tMzMuMDIxIDBWNDcuMDk0bDEzLjIwMSA4LjQxNnYxNS4wMzh6bTE2LjUxMS0zMi4yODVWMTQuODFsMTMuMjAxIDguNDE2djE1LjAzOHptNjIuOTk5IDMzLjk2VjI1LjQwM2wtOS41NjItMS44ODR2NDIuMTMxem0tOTkuNzg4IDBWMjUuNDAzbDkuNTYyLTEuODg0djQyLjEzMXoiLz4mI3hhOwk8cGF0aCBjbGFzcz0ic3QxIiBkPSJNNTMuMTg1IDQ3LjA5NGwxMy4yNTgtOC4yODcgMTMuMDE2IDguMjM0LTEzLjAxNiA4LjQ2OXptLTMzLjAyMSAwbDEzLjI1OC04LjI4NyAxMy4wMTYgOC4yMzQtMTMuMDE2IDguNDY5ek0zNi42NzUgMTQuODFsMTMuMjU4LTguMjg3IDEzLjAxNiA4LjIzNC0xMy4wMTYgOC40Njl6bTYzLjA1NiA0OC45NTZ2MTIuMjE3TDc3LjAxIDg5LjA1NVY3Ny43NTJ6bTAtMzguMzYzVjEzLjE4Nkw3Ny4wMS4xMTN2MTEuMzAzek0tLjA1OCA2My43NjZ2MTIuMjE3bDIyLjcyMSAxMy4wNzNWNzcuNzUyem0wLTM4LjM2M1YxMy4xODZMMjIuNjYzLjExM3YxMS4zMDN6Ii8+JiN4YTsJPHBhdGggY2xhc3M9InN0MiIgZD0iTTY2LjQ0NCA3MC41NDdWNTUuNTFsMTMuMDE2LTguNDY5djE1LjR6bS0zMy4wMjEgMFY1NS41MWwxMy4wMTYtOC40Njl2MTUuNHptMTYuNTExLTMyLjI4NVYyMy4yMjVsMTMuMDE2LTguNDY5djE1LjR6bTQ5Ljc5OCAyNS41MDNsLTkuNTYyIDUuODh2LTMuOTk2em0wLTM4LjM2M2wtOS41NjItNS44OHYzLjk5NnpNLS4wNTggNjMuNzY2bDkuNTYyIDUuODh2LTMuOTk2em0wLTM4LjM2M2w5LjU2Mi01Ljg4djMuOTk2eiIvPiYjeGE7PC9zdmc+;" vertex="1" parent="kx3Ie3QOy20wnRRrD1VL-1">
          <mxGeometry x="240" y="47.5" width="70" height="70" as="geometry" />
        </mxCell>
        <mxCell id="kx3Ie3QOy20wnRRrD1VL-5" style="edgeStyle=orthogonalEdgeStyle;rounded=0;orthogonalLoop=1;jettySize=auto;html=1;entryX=0;entryY=0.5;entryDx=0;entryDy=0;" edge="1" parent="kx3Ie3QOy20wnRRrD1VL-1" source="kx3Ie3QOy20wnRRrD1VL-4" target="kx3Ie3QOy20wnRRrD1VL-2">
          <mxGeometry relative="1" as="geometry" />
        </mxCell>
        <mxCell id="kx3Ie3QOy20wnRRrD1VL-6" value="&lt;div&gt;Push container&lt;/div&gt;&lt;div&gt;images&lt;/div&gt;" style="edgeLabel;html=1;align=center;verticalAlign=middle;resizable=0;points=[];" vertex="1" connectable="0" parent="kx3Ie3QOy20wnRRrD1VL-5">
          <mxGeometry x="-0.2628" y="-1" relative="1" as="geometry">
            <mxPoint x="22" y="17" as="offset" />
          </mxGeometry>
        </mxCell>
        <mxCell id="kx3Ie3QOy20wnRRrD1VL-4" value="&lt;div&gt;Docker-Compose&lt;/div&gt;&lt;div&gt;Build&lt;/div&gt;" style="sketch=0;html=1;verticalAlign=top;labelPosition=center;verticalLabelPosition=bottom;align=center;spacingTop=-6;fontSize=11;fontStyle=1;fontColor=#999999;shape=image;aspect=fixed;imageAspect=0;image=data:image/svg+xml,PHN2ZyB4bWxucz0iaHR0cDovL3d3dy53My5vcmcvMjAwMC9zdmciIHhtbG5zOnY9Imh0dHBzOi8vdmVjdGEuaW8vbmFubyIgd2lkdGg9IjE3LjMyOTk5OTkyMzcwNjA1NSIgaGVpZ2h0PSIxOS42MTAwMDA2MTAzNTE1NjIiIHZpZXdCb3g9IjAgMCAxNy4zMjk5OTk5MjM3MDYwNTUgMTkuNjEwMDAwNjEwMzUxNTYyIj4mI3hhOwk8c3R5bGUgdHlwZT0idGV4dC9jc3MiPiYjeGE7CS5zdDB7ZmlsbDojNDI4NWY0O30mI3hhOwkuc3Qxe2ZpbGw6IzY2OWRmNjt9JiN4YTsJLnN0MntmaWxsOiNhZWNiZmE7fSYjeGE7CTwvc3R5bGU+JiN4YTsJPHBhdGggY2xhc3M9InN0MCIgZD0iTTEyLjE4IDcuOThMMTEgNy4yOWwtMy41MiA2LjEgMS4xOC42OCAzLjUyLTIuMDN6IiBmaWxsPSIjNDI4NWY0Ii8+JiN4YTsJPHBhdGggY2xhc3M9InN0MSIgZD0iTTYuMzIgMTIuNzJsMy41My02LjA5LTEuMTktLjY5LTMuNTIgMi4wNHY0LjA2eiIgZmlsbD0iIzY2OWRmNiIvPiYjeGE7CTxwYXRoIGNsYXNzPSJzdDIiIGQ9Ik0zLjc1IDcuOThMMCA1LjgxdjkuMmw3Ljk3IDQuNnYtNC4zM2wtNC4yMi0yLjQ0em05LjEzLTEuMmwzLjc2LTIuMTdMOC42NiAwIC42OCA0LjYxbDMuNzYgMi4xNyA0LjIyLTIuNDR6TTkuMzUgMTkuNjFsNy45OC00LjZ2LTkuMmwtMy43NiAyLjE3djQuODZsLTQuMjIgMi40NHoiIGZpbGw9IiNhZWNiZmEiLz4mI3hhOzwvc3ZnPg==;" vertex="1" parent="kx3Ie3QOy20wnRRrD1VL-1">
          <mxGeometry x="30" y="45" width="64.29" height="75" as="geometry" />
        </mxCell>
        <mxCell id="kx3Ie3QOy20wnRRrD1VL-14" value="Kubernetes" style="swimlane;" vertex="1" parent="1">
          <mxGeometry x="30" y="280" width="750" height="220" as="geometry" />
        </mxCell>
      </root>
    </mxGraphModel>
  </diagram>
</mxfile>
